<svg width="230" height="230" viewBox="0 0 230 230" fill="none" xmlns="http://www.w3.org/2000/svg">
<circle cx="115" cy="115" r="113" fill="white" stroke="#4578FB" stroke-width="4"/>
<path d="M66.7422 111.859C66.9297 111.781 67.0938 111.766 67.2344 111.812C67.375 111.859 67.4922 111.945 67.5859 112.07C67.6797 112.195 67.75 112.344 67.7969 112.516C67.8438 112.672 67.8828 112.828 67.9141 112.984C68.1172 112.641 68.4062 112.367 68.7812 112.164C69.1719 111.945 69.5859 111.805 70.0234 111.742C70.4609 111.664 70.8984 111.648 71.3359 111.695C71.7734 111.727 72.1406 111.82 72.4375 111.977C72.75 112.117 72.9688 112.32 73.0938 112.586C73.2188 112.836 73.1875 113.133 73 113.477C72.5938 113.242 72.1641 113.055 71.7109 112.914C71.2734 112.773 70.8438 112.727 70.4219 112.773C70 112.82 69.6094 112.984 69.25 113.266C68.8906 113.531 68.5938 113.961 68.3594 114.555C68.125 115.148 67.9766 115.938 67.9141 116.922C67.8672 117.891 67.9375 119.102 68.125 120.555H67.2344C67.2344 120.555 67.2188 120.43 67.1875 120.18C67.1719 119.914 67.1484 119.57 67.1172 119.148C67.1016 118.727 67.0703 118.258 67.0234 117.742C66.9922 117.227 66.9609 116.703 66.9297 116.172C66.8984 115.641 66.8672 115.133 66.8359 114.648C66.8203 114.148 66.7969 113.719 66.7656 113.359C66.7656 113.312 66.7578 113.219 66.7422 113.078C66.7422 112.938 66.7422 112.789 66.7422 112.633C66.7422 112.461 66.7422 112.305 66.7422 112.164C66.7422 112.023 66.7422 111.922 66.7422 111.859ZM74.2188 115.492C74.2188 115.023 74.3203 114.508 74.5234 113.945C74.7266 113.367 75 112.836 75.3438 112.352C75.7031 111.852 76.1016 111.438 76.5391 111.109C76.9922 110.766 77.4609 110.594 77.9453 110.594C78.2109 110.594 78.4688 110.648 78.7188 110.758C78.9844 110.867 79.2344 111.016 79.4688 111.203C79.7188 111.375 79.9375 111.578 80.125 111.812C80.3281 112.031 80.4844 112.266 80.5938 112.516C80.7031 112.766 80.7578 113.008 80.7578 113.242C80.7734 113.477 80.7109 113.68 80.5703 113.852L75.625 114.766C75.5625 114.781 75.5078 114.859 75.4609 115C75.4141 115.125 75.375 115.289 75.3438 115.492C75.3125 115.695 75.2812 115.922 75.25 116.172C75.2344 116.406 75.2188 116.641 75.2031 116.875C75.1875 117.094 75.1797 117.297 75.1797 117.484C75.1797 117.656 75.1797 117.789 75.1797 117.883C75.1797 118.32 75.2812 118.68 75.4844 118.961C75.7031 119.227 75.9766 119.43 76.3047 119.57C76.6328 119.711 77 119.805 77.4062 119.852C77.8281 119.898 78.2422 119.922 78.6484 119.922C79.0547 119.922 79.4375 119.906 79.7969 119.875C80.1562 119.844 80.4531 119.828 80.6875 119.828C80.6875 119.891 80.6641 119.961 80.6172 120.039C80.5703 120.117 80.5156 120.195 80.4531 120.273C80.3906 120.336 80.3281 120.398 80.2656 120.461C80.2031 120.508 80.1641 120.539 80.1484 120.555C80.0234 120.586 79.8281 120.633 79.5625 120.695C79.3125 120.742 79.0391 120.789 78.7422 120.836C78.4609 120.883 78.1953 120.922 77.9453 120.953C77.6953 120.984 77.5234 121 77.4297 121C76.9453 121.094 76.5234 121.086 76.1641 120.977C75.8047 120.867 75.5 120.68 75.25 120.414C75 120.148 74.7969 119.828 74.6406 119.453C74.4844 119.062 74.3672 118.648 74.2891 118.211C74.2109 117.773 74.1641 117.32 74.1484 116.852C74.1484 116.383 74.1719 115.93 74.2188 115.492ZM77.6172 111.484C77.4766 111.484 77.2891 111.562 77.0547 111.719C76.8359 111.859 76.625 112.047 76.4219 112.281C76.2344 112.5 76.0703 112.742 75.9297 113.008C75.8047 113.258 75.7656 113.477 75.8125 113.664C76.2188 113.711 76.6406 113.703 77.0781 113.641C77.5156 113.578 77.9141 113.484 78.2734 113.359C78.6328 113.219 78.9297 113.062 79.1641 112.891C79.3984 112.703 79.5078 112.516 79.4922 112.328C79.4922 112.141 79.3438 111.977 79.0469 111.836C78.7656 111.68 78.2891 111.562 77.6172 111.484ZM81.9531 118.984C81.9531 118.094 82.1953 117.445 82.6797 117.039C83.1797 116.633 83.8281 116.43 84.625 116.43C84.9375 116.43 85.2266 116.438 85.4922 116.453C85.7734 116.469 86.0391 116.508 86.2891 116.57C86.5391 116.633 86.7812 116.727 87.0156 116.852C87.2656 116.977 87.5234 117.156 87.7891 117.391C87.7891 117.344 87.7891 117.25 87.7891 117.109C87.8047 116.953 87.8125 116.789 87.8125 116.617C87.8125 116.445 87.8125 116.289 87.8125 116.148C87.8125 115.992 87.8125 115.883 87.8125 115.82C87.7969 115.539 87.7891 115.18 87.7891 114.742C87.7891 114.289 87.75 113.828 87.6719 113.359C87.6094 112.891 87.4688 112.445 87.25 112.023C87.0469 111.602 86.7109 111.281 86.2422 111.062C85.9141 111.062 85.6094 111.117 85.3281 111.227C85.0469 111.336 84.7656 111.453 84.4844 111.578C84.2031 111.703 83.9219 111.82 83.6406 111.93C83.3594 112.023 83.0547 112.07 82.7266 112.07C82.7266 111.68 82.8438 111.359 83.0781 111.109C83.3281 110.844 83.625 110.641 83.9688 110.5C84.3125 110.359 84.6719 110.266 85.0469 110.219C85.4219 110.172 85.75 110.148 86.0312 110.148C86.3125 110.195 86.5703 110.25 86.8047 110.312C87.0547 110.375 87.2812 110.5 87.4844 110.688C87.7031 110.875 87.8984 111.164 88.0703 111.555C88.2578 111.93 88.4141 112.461 88.5391 113.148C88.6797 113.836 88.7969 114.711 88.8906 115.773C89 116.82 89.0859 118.109 89.1484 119.641C89.1797 119.844 89.1094 120.023 88.9375 120.18C88.7812 120.32 88.5625 120.445 88.2812 120.555C88 120.648 87.6797 120.734 87.3203 120.812C86.9766 120.875 86.625 120.922 86.2656 120.953C85.9062 120.984 85.5625 121.008 85.2344 121.023C84.9062 121.039 84.6328 121.047 84.4141 121.047C84.1328 121.047 83.8438 121 83.5469 120.906C83.2656 120.812 83 120.68 82.75 120.508C82.5156 120.32 82.3203 120.102 82.1641 119.852C82.0234 119.586 81.9531 119.297 81.9531 118.984ZM85 117.344C84.2188 117.562 83.6719 117.828 83.3594 118.141C83.0469 118.438 82.9062 118.727 82.9375 119.008C82.9844 119.289 83.1719 119.547 83.5 119.781C83.8281 120 84.2266 120.148 84.6953 120.227C85.1641 120.289 85.6719 120.25 86.2188 120.109C86.7656 119.953 87.2891 119.656 87.7891 119.219C87.6016 118.766 87.4141 118.422 87.2266 118.188C87.0391 117.938 86.8359 117.75 86.6172 117.625C86.3984 117.5 86.1562 117.422 85.8906 117.391C85.625 117.359 85.3281 117.344 85 117.344ZM90.0625 116.992C90.0625 116.414 90.1562 115.773 90.3438 115.07C90.5312 114.367 90.8047 113.719 91.1641 113.125C91.5234 112.516 91.9688 112.008 92.5 111.602C93.0312 111.195 93.6484 110.992 94.3516 110.992C94.7109 110.945 95 110.984 95.2188 111.109C95.4375 111.219 95.6016 111.398 95.7109 111.648C95.8359 111.898 95.9141 112.188 95.9453 112.516C95.9922 112.828 96.0156 113.156 96.0156 113.5C96.0312 113.828 96.0312 114.141 96.0156 114.438C96.0156 114.719 96.0312 114.953 96.0625 115.141H95.4766C95.4609 115.047 95.4297 114.828 95.3828 114.484C95.3516 114.125 95.2891 113.758 95.1953 113.383C95.1016 113.008 94.9688 112.672 94.7969 112.375C94.6406 112.078 94.4141 111.93 94.1172 111.93C93.6797 111.93 93.2656 112.102 92.875 112.445C92.5 112.789 92.1719 113.203 91.8906 113.688C91.6094 114.172 91.3828 114.672 91.2109 115.188C91.0391 115.703 90.9531 116.133 90.9531 116.477C90.9688 116.867 91.0234 117.297 91.1172 117.766C91.2109 118.219 91.3594 118.633 91.5625 119.008C91.7812 119.383 92.0625 119.688 92.4062 119.922C92.75 120.156 93.1719 120.227 93.6719 120.133C94.0469 120.133 94.4062 120.055 94.75 119.898C95.0938 119.742 95.4297 119.578 95.7578 119.406C96.0859 119.234 96.4141 119.07 96.7422 118.914C97.0859 118.758 97.4453 118.68 97.8203 118.68C97.8203 119.086 97.6719 119.445 97.375 119.758C97.0781 120.055 96.7109 120.297 96.2734 120.484C95.8516 120.672 95.3984 120.812 94.9141 120.906C94.4453 121 94.0469 121.047 93.7188 121.047C93.1875 121.047 92.6953 120.938 92.2422 120.719C91.8047 120.5 91.4219 120.211 91.0938 119.852C90.7656 119.477 90.5078 119.047 90.3203 118.562C90.1484 118.062 90.0625 117.539 90.0625 116.992ZM101.734 112.492C101.594 112.445 101.398 112.43 101.148 112.445C100.914 112.445 100.656 112.461 100.375 112.492C100.109 112.508 99.8516 112.531 99.6016 112.562C99.3516 112.594 99.1406 112.609 98.9688 112.609C98.8906 112.609 98.8359 112.5 98.8047 112.281C98.7891 112.047 98.7578 111.734 98.7109 111.344L102.016 111.109C102.062 110.562 102.094 110.172 102.109 109.938C102.125 109.703 102.125 109.508 102.109 109.352C102.109 109.18 102.102 108.992 102.086 108.789C102.086 108.57 102.086 108.234 102.086 107.781C102.492 107.719 102.797 107.703 103 107.734C103.219 107.75 103.367 107.805 103.445 107.898C103.523 107.992 103.555 108.133 103.539 108.32C103.539 108.492 103.516 108.711 103.469 108.977C103.438 109.242 103.406 109.562 103.375 109.938C103.359 110.312 103.375 110.734 103.422 111.203L106.234 111.109V112.258C106.109 112.258 105.914 112.266 105.648 112.281C105.383 112.297 105.094 112.312 104.781 112.328C104.484 112.344 104.203 112.359 103.938 112.375C103.688 112.391 103.5 112.422 103.375 112.469C103.25 113.031 103.117 113.633 102.977 114.273C102.836 114.914 102.742 115.547 102.695 116.172C102.648 116.797 102.664 117.383 102.742 117.93C102.82 118.461 103.016 118.906 103.328 119.266C103.641 119.609 104.086 119.852 104.664 119.992C105.242 120.117 106.008 120.07 106.961 119.852C106.93 120.086 106.836 120.281 106.68 120.438C106.539 120.578 106.367 120.695 106.164 120.789C105.977 120.867 105.773 120.93 105.555 120.977C105.336 121.008 105.141 121.023 104.969 121.023C104.172 121.023 103.539 120.883 103.07 120.602C102.602 120.305 102.25 119.922 102.016 119.453C101.781 118.984 101.633 118.453 101.57 117.859C101.508 117.25 101.484 116.633 101.5 116.008C101.531 115.383 101.578 114.766 101.641 114.156C101.703 113.547 101.734 112.992 101.734 112.492ZM108.109 115.609C108.109 115.594 108.281 115.562 108.625 115.516C108.984 115.453 109.438 115.391 109.984 115.328C110.531 115.266 111.148 115.203 111.836 115.141C112.523 115.078 113.219 115.016 113.922 114.953C113.984 114.953 114.109 114.953 114.297 114.953C114.484 114.938 114.672 114.93 114.859 114.93C115.062 114.914 115.25 114.906 115.422 114.906C115.609 114.891 115.742 114.883 115.82 114.883C115.82 115.086 115.773 115.273 115.68 115.445C115.602 115.617 115.469 115.75 115.281 115.844C114.906 115.891 114.438 115.945 113.875 116.008C113.312 116.055 112.734 116.109 112.141 116.172C111.547 116.234 110.969 116.297 110.406 116.359C109.844 116.422 109.375 116.469 109 116.5C108.969 116.5 108.891 116.508 108.766 116.523C108.656 116.523 108.57 116.523 108.508 116.523C108.305 116.523 108.133 116.508 107.992 116.477C107.852 116.445 107.734 116.305 107.641 116.055L108.109 115.609ZM117.227 120.883C117.195 120.633 117.164 120.273 117.133 119.805C117.117 119.32 117.094 118.781 117.062 118.188C117.047 117.578 117.031 116.945 117.016 116.289C117 115.633 116.984 115.008 116.969 114.414C116.953 113.82 116.93 113.289 116.898 112.82C116.883 112.336 116.852 111.969 116.805 111.719C116.805 111.703 116.797 111.664 116.781 111.602C116.781 111.539 116.773 111.469 116.758 111.391C116.758 111.312 116.758 111.25 116.758 111.203C116.758 111.141 116.758 111.094 116.758 111.062C116.992 110.875 117.188 110.812 117.344 110.875C117.516 110.938 117.656 111.078 117.766 111.297C117.875 111.5 117.953 111.758 118 112.07C118.047 112.383 118.078 112.695 118.094 113.008C118.125 113.32 118.141 113.609 118.141 113.875C118.141 114.125 118.141 114.305 118.141 114.414C118.172 114.148 118.219 113.836 118.281 113.477C118.344 113.117 118.438 112.75 118.562 112.375C118.688 112 118.836 111.633 119.008 111.273C119.195 110.898 119.422 110.57 119.688 110.289C119.953 110.008 120.25 109.789 120.578 109.633C120.922 109.477 121.312 109.414 121.75 109.445C122.438 109.477 123 109.664 123.438 110.008C123.891 110.352 124.242 110.812 124.492 111.391C124.758 111.969 124.945 112.633 125.055 113.383C125.18 114.133 125.258 114.93 125.289 115.773C125.336 116.617 125.352 117.477 125.336 118.352C125.32 119.211 125.312 120.039 125.312 120.836C125.172 120.867 125.031 120.922 124.891 121C124.75 121.062 124.633 121.086 124.539 121.07C124.445 121.07 124.375 121.008 124.328 120.883C124.297 120.742 124.312 120.477 124.375 120.086C124.391 119.805 124.414 119.375 124.445 118.797C124.492 118.203 124.508 117.547 124.492 116.828C124.492 116.109 124.453 115.367 124.375 114.602C124.297 113.836 124.148 113.141 123.93 112.516C123.727 111.875 123.43 111.359 123.039 110.969C122.648 110.562 122.141 110.359 121.516 110.359C120.875 110.625 120.336 111.125 119.898 111.859C119.477 112.594 119.133 113.453 118.867 114.438C118.617 115.422 118.43 116.492 118.305 117.648C118.195 118.789 118.133 119.906 118.117 121C118.086 120.984 118.023 120.977 117.93 120.977C117.852 120.977 117.758 120.977 117.648 120.977C117.555 120.961 117.461 120.945 117.367 120.93C117.289 120.914 117.242 120.898 117.227 120.883ZM126.367 118.984C126.367 118.094 126.609 117.445 127.094 117.039C127.594 116.633 128.242 116.43 129.039 116.43C129.352 116.43 129.641 116.438 129.906 116.453C130.188 116.469 130.453 116.508 130.703 116.57C130.953 116.633 131.195 116.727 131.43 116.852C131.68 116.977 131.938 117.156 132.203 117.391C132.203 117.344 132.203 117.25 132.203 117.109C132.219 116.953 132.227 116.789 132.227 116.617C132.227 116.445 132.227 116.289 132.227 116.148C132.227 115.992 132.227 115.883 132.227 115.82C132.211 115.539 132.203 115.18 132.203 114.742C132.203 114.289 132.164 113.828 132.086 113.359C132.023 112.891 131.883 112.445 131.664 112.023C131.461 111.602 131.125 111.281 130.656 111.062C130.328 111.062 130.023 111.117 129.742 111.227C129.461 111.336 129.18 111.453 128.898 111.578C128.617 111.703 128.336 111.82 128.055 111.93C127.773 112.023 127.469 112.07 127.141 112.07C127.141 111.68 127.258 111.359 127.492 111.109C127.742 110.844 128.039 110.641 128.383 110.5C128.727 110.359 129.086 110.266 129.461 110.219C129.836 110.172 130.164 110.148 130.445 110.148C130.727 110.195 130.984 110.25 131.219 110.312C131.469 110.375 131.695 110.5 131.898 110.688C132.117 110.875 132.312 111.164 132.484 111.555C132.672 111.93 132.828 112.461 132.953 113.148C133.094 113.836 133.211 114.711 133.305 115.773C133.414 116.82 133.5 118.109 133.562 119.641C133.594 119.844 133.523 120.023 133.352 120.18C133.195 120.32 132.977 120.445 132.695 120.555C132.414 120.648 132.094 120.734 131.734 120.812C131.391 120.875 131.039 120.922 130.68 120.953C130.32 120.984 129.977 121.008 129.648 121.023C129.32 121.039 129.047 121.047 128.828 121.047C128.547 121.047 128.258 121 127.961 120.906C127.68 120.812 127.414 120.68 127.164 120.508C126.93 120.32 126.734 120.102 126.578 119.852C126.438 119.586 126.367 119.297 126.367 118.984ZM129.414 117.344C128.633 117.562 128.086 117.828 127.773 118.141C127.461 118.438 127.32 118.727 127.352 119.008C127.398 119.289 127.586 119.547 127.914 119.781C128.242 120 128.641 120.148 129.109 120.227C129.578 120.289 130.086 120.25 130.633 120.109C131.18 119.953 131.703 119.656 132.203 119.219C132.016 118.766 131.828 118.422 131.641 118.188C131.453 117.938 131.25 117.75 131.031 117.625C130.812 117.5 130.57 117.422 130.305 117.391C130.039 117.359 129.742 117.344 129.414 117.344ZM137.359 112.492C137.219 112.445 137.023 112.43 136.773 112.445C136.539 112.445 136.281 112.461 136 112.492C135.734 112.508 135.477 112.531 135.227 112.562C134.977 112.594 134.766 112.609 134.594 112.609C134.516 112.609 134.461 112.5 134.43 112.281C134.414 112.047 134.383 111.734 134.336 111.344L137.641 111.109C137.688 110.562 137.719 110.172 137.734 109.938C137.75 109.703 137.75 109.508 137.734 109.352C137.734 109.18 137.727 108.992 137.711 108.789C137.711 108.57 137.711 108.234 137.711 107.781C138.117 107.719 138.422 107.703 138.625 107.734C138.844 107.75 138.992 107.805 139.07 107.898C139.148 107.992 139.18 108.133 139.164 108.32C139.164 108.492 139.141 108.711 139.094 108.977C139.062 109.242 139.031 109.562 139 109.938C138.984 110.312 139 110.734 139.047 111.203L141.859 111.109V112.258C141.734 112.258 141.539 112.266 141.273 112.281C141.008 112.297 140.719 112.312 140.406 112.328C140.109 112.344 139.828 112.359 139.562 112.375C139.312 112.391 139.125 112.422 139 112.469C138.875 113.031 138.742 113.633 138.602 114.273C138.461 114.914 138.367 115.547 138.32 116.172C138.273 116.797 138.289 117.383 138.367 117.93C138.445 118.461 138.641 118.906 138.953 119.266C139.266 119.609 139.711 119.852 140.289 119.992C140.867 120.117 141.633 120.07 142.586 119.852C142.555 120.086 142.461 120.281 142.305 120.438C142.164 120.578 141.992 120.695 141.789 120.789C141.602 120.867 141.398 120.93 141.18 120.977C140.961 121.008 140.766 121.023 140.594 121.023C139.797 121.023 139.164 120.883 138.695 120.602C138.227 120.305 137.875 119.922 137.641 119.453C137.406 118.984 137.258 118.453 137.195 117.859C137.133 117.25 137.109 116.633 137.125 116.008C137.156 115.383 137.203 114.766 137.266 114.156C137.328 113.547 137.359 112.992 137.359 112.492ZM144.508 111.906C144.695 111.906 144.852 111.898 144.977 111.883C145.117 111.867 145.234 111.945 145.328 112.117C145.375 112.82 145.43 113.539 145.492 114.273C145.555 114.992 145.617 115.719 145.68 116.453C145.742 117.188 145.781 117.93 145.797 118.68C145.828 119.414 145.836 120.133 145.82 120.836C145.82 120.93 145.797 120.984 145.75 121C145.703 121.031 145.633 121.039 145.539 121.023C145.461 121.023 145.359 121.016 145.234 121C145.125 121 145 121.016 144.859 121.047L144.508 111.906ZM143.148 107.711C143.148 107.602 143.156 107.484 143.172 107.359C143.188 107.219 143.219 107.094 143.266 106.984C143.328 106.875 143.398 106.781 143.477 106.703C143.57 106.625 143.68 106.586 143.805 106.586C143.992 106.586 144.18 106.594 144.367 106.609C144.555 106.625 144.734 106.664 144.906 106.727C145.078 106.773 145.219 106.859 145.328 106.984C145.438 107.094 145.492 107.258 145.492 107.477C145.492 107.852 145.352 108.188 145.07 108.484C144.789 108.766 144.445 108.906 144.039 108.906C143.727 108.906 143.5 108.789 143.359 108.555C143.219 108.305 143.148 108.023 143.148 107.711ZM144.508 107.828C144.461 107.828 144.438 107.867 144.438 107.945C144.438 108.023 144.461 108.062 144.508 108.062C144.57 108.062 144.602 108.023 144.602 107.945C144.602 107.867 144.57 107.828 144.508 107.828ZM146.57 110.641L147.297 109.914L152.453 119.289L154.656 110.219C154.766 110.266 154.883 110.305 155.008 110.336C155.133 110.352 155.242 110.375 155.336 110.406C155.445 110.422 155.531 110.445 155.594 110.477C155.656 110.508 155.688 110.562 155.688 110.641C155.484 111.641 155.289 112.578 155.102 113.453C154.93 114.328 154.742 115.18 154.539 116.008C154.336 116.836 154.117 117.672 153.883 118.516C153.648 119.344 153.375 120.211 153.062 121.117H152.148L146.57 110.641ZM156.273 115.492C156.273 115.023 156.375 114.508 156.578 113.945C156.781 113.367 157.055 112.836 157.398 112.352C157.758 111.852 158.156 111.438 158.594 111.109C159.047 110.766 159.516 110.594 160 110.594C160.266 110.594 160.523 110.648 160.773 110.758C161.039 110.867 161.289 111.016 161.523 111.203C161.773 111.375 161.992 111.578 162.18 111.812C162.383 112.031 162.539 112.266 162.648 112.516C162.758 112.766 162.812 113.008 162.812 113.242C162.828 113.477 162.766 113.68 162.625 113.852L157.68 114.766C157.617 114.781 157.562 114.859 157.516 115C157.469 115.125 157.43 115.289 157.398 115.492C157.367 115.695 157.336 115.922 157.305 116.172C157.289 116.406 157.273 116.641 157.258 116.875C157.242 117.094 157.234 117.297 157.234 117.484C157.234 117.656 157.234 117.789 157.234 117.883C157.234 118.32 157.336 118.68 157.539 118.961C157.758 119.227 158.031 119.43 158.359 119.57C158.688 119.711 159.055 119.805 159.461 119.852C159.883 119.898 160.297 119.922 160.703 119.922C161.109 119.922 161.492 119.906 161.852 119.875C162.211 119.844 162.508 119.828 162.742 119.828C162.742 119.891 162.719 119.961 162.672 120.039C162.625 120.117 162.57 120.195 162.508 120.273C162.445 120.336 162.383 120.398 162.32 120.461C162.258 120.508 162.219 120.539 162.203 120.555C162.078 120.586 161.883 120.633 161.617 120.695C161.367 120.742 161.094 120.789 160.797 120.836C160.516 120.883 160.25 120.922 160 120.953C159.75 120.984 159.578 121 159.484 121C159 121.094 158.578 121.086 158.219 120.977C157.859 120.867 157.555 120.68 157.305 120.414C157.055 120.148 156.852 119.828 156.695 119.453C156.539 119.062 156.422 118.648 156.344 118.211C156.266 117.773 156.219 117.32 156.203 116.852C156.203 116.383 156.227 115.93 156.273 115.492ZM159.672 111.484C159.531 111.484 159.344 111.562 159.109 111.719C158.891 111.859 158.68 112.047 158.477 112.281C158.289 112.5 158.125 112.742 157.984 113.008C157.859 113.258 157.82 113.477 157.867 113.664C158.273 113.711 158.695 113.703 159.133 113.641C159.57 113.578 159.969 113.484 160.328 113.359C160.688 113.219 160.984 113.062 161.219 112.891C161.453 112.703 161.562 112.516 161.547 112.328C161.547 112.141 161.398 111.977 161.102 111.836C160.82 111.68 160.344 111.562 159.672 111.484Z" fill="#4578FB"/>
<path d="M48.9375 176.25C49.1458 175.75 49.4583 175.438 49.875 175.312C50.3333 175.188 50.8125 175.5 51.3125 176.25C51.3125 176.333 51.5 176.458 51.875 176.625C52.2917 176.75 52.7917 176.917 53.375 177.125C54 177.292 54.7083 177.479 55.5 177.688C56.3333 177.854 57.1458 178.021 57.9375 178.188C58.7292 178.312 59.5 178.438 60.25 178.562C61 178.646 61.6458 178.688 62.1875 178.688C63.6042 178.688 64.8958 178.396 66.0625 177.812C67.2708 177.188 68.2917 176.396 69.125 175.438C70 174.479 70.6667 173.396 71.125 172.188C71.5833 170.938 71.8125 169.667 71.8125 168.375C71.8125 168 71.75 167.354 71.625 166.438C71.5 165.479 71.2917 164.542 71 163.625C70.7083 162.667 70.3125 161.812 69.8125 161.062C69.3542 160.312 68.7917 159.938 68.125 159.938C63.7917 160.438 60.2292 160.646 57.4375 160.562C54.6875 160.438 52.5 160.104 50.875 159.562C49.25 159.021 48.1042 158.292 47.4375 157.375C46.8125 156.417 46.4792 155.333 46.4375 154.125C46.4375 152.625 46.8125 151.188 47.5625 149.812C48.3125 148.396 49.2708 147.146 50.4375 146.062C51.6042 144.979 52.8958 144.125 54.3125 143.5C55.7708 142.833 57.2083 142.5 58.625 142.5C59.7917 142.5 61 142.646 62.25 142.938C63.5417 143.229 64.7292 143.688 65.8125 144.312C66.8958 144.896 67.7708 145.688 68.4375 146.688C69.1458 147.646 69.5 148.812 69.5 150.188C68.5 150.188 67.5833 149.917 66.75 149.375C65.9167 148.792 65.0833 148.188 64.25 147.562C63.4167 146.938 62.5417 146.354 61.625 145.812C60.7083 145.229 59.6458 144.938 58.4375 144.938C57.4375 144.938 56.4167 145.188 55.375 145.688C54.375 146.188 53.4583 146.833 52.625 147.625C51.8333 148.417 51.1667 149.312 50.625 150.312C50.125 151.271 49.875 152.271 49.875 153.312C49.875 153.729 49.875 154.188 49.875 154.688C49.9167 155.146 50.0208 155.604 50.1875 156.062C50.3542 156.479 50.6042 156.833 50.9375 157.125C51.3125 157.417 51.8333 157.562 52.5 157.562H69.3125C70.0208 157.562 70.625 157.792 71.125 158.25C71.6667 158.667 72.1042 159.208 72.4375 159.875C72.8125 160.542 73.1042 161.292 73.3125 162.125C73.5625 162.958 73.75 163.771 73.875 164.562C74.0417 165.354 74.1458 166.104 74.1875 166.812C74.2292 167.479 74.25 168 74.25 168.375C74.25 170 74.0208 171.542 73.5625 173C73.1042 174.417 72.4167 175.708 71.5 176.875C70.5833 178 69.4375 178.938 68.0625 179.688C66.6875 180.396 65.1042 180.833 63.3125 181C62.4375 181.083 61.2917 181.062 59.875 180.938C58.5 180.812 57.1042 180.583 55.6875 180.25C54.2708 179.875 52.9375 179.375 51.6875 178.75C50.4375 178.083 49.5208 177.25 48.9375 176.25ZM77.625 168.438C77.625 165.438 77.625 162.604 77.625 159.938C77.6667 157.271 77.7292 154.646 77.8125 152.062C77.9375 149.438 78.0833 146.792 78.25 144.125C78.4167 141.417 78.6458 138.5 78.9375 135.375H80.75V159.375H94.375C94.3333 157.875 94.3125 156.271 94.3125 154.562C94.3125 152.812 94.2917 151.062 94.25 149.312C94.2083 147.521 94.1667 145.792 94.125 144.125C94.125 142.417 94.125 140.812 94.125 139.312C94.125 137.812 94.125 136.5 94.125 135.375C94.125 134.25 94.125 133.375 94.125 132.75C94.25 132.75 94.4583 132.792 94.75 132.875C95.0833 132.917 95.3958 133 95.6875 133.125C96.0208 133.208 96.3125 133.354 96.5625 133.562C96.8125 133.729 96.9375 133.958 96.9375 134.25V181.062L95 180.688C94.9167 180.688 94.8542 180.417 94.8125 179.875C94.7708 179.333 94.7292 178.667 94.6875 177.875C94.6875 177.042 94.6667 176.104 94.625 175.062C94.625 173.979 94.6042 172.938 94.5625 171.938C94.5625 170.896 94.5417 169.917 94.5 169C94.5 168.083 94.5 167.312 94.5 166.688C94.5 166.104 94.5 165.312 94.5 164.312C94.5 163.312 94.4792 162.167 94.4375 160.875L80.75 163.312L80.625 181.125H77.625C77.625 181.083 77.625 180.792 77.625 180.25C77.625 179.708 77.625 179.042 77.625 178.25C77.625 177.417 77.625 176.521 77.625 175.562C77.625 174.562 77.625 173.604 77.625 172.688C77.625 171.771 77.625 170.938 77.625 170.188C77.625 169.438 77.625 168.854 77.625 168.438ZM101.5 160.25C101.5 158.875 101.583 157.417 101.75 155.875C101.958 154.333 102.271 152.833 102.688 151.375C103.146 149.875 103.708 148.458 104.375 147.125C105.083 145.75 105.917 144.562 106.875 143.562C107.875 142.521 109.021 141.708 110.312 141.125C111.646 140.5 113.146 140.188 114.812 140.188C116.271 140.188 117.562 140.604 118.688 141.438C119.812 142.229 120.792 143.292 121.625 144.625C122.458 145.917 123.146 147.396 123.688 149.062C124.229 150.729 124.667 152.417 125 154.125C125.375 155.792 125.625 157.417 125.75 159C125.875 160.542 125.938 161.875 125.938 163C125.771 165.458 125.417 167.729 124.875 169.812C124.333 171.854 123.583 173.667 122.625 175.25C121.708 176.792 120.562 178.062 119.188 179.062C117.812 180.062 116.146 180.729 114.188 181.062C112.312 181.062 110.708 180.729 109.375 180.062C108.042 179.396 106.896 178.521 105.938 177.438C104.979 176.354 104.208 175.104 103.625 173.688C103.042 172.271 102.583 170.792 102.25 169.25C101.958 167.708 101.75 166.167 101.625 164.625C101.542 163.042 101.5 161.583 101.5 160.25ZM103.875 160.25C103.875 161.25 103.896 162.375 103.938 163.625C103.979 164.875 104.083 166.146 104.25 167.438C104.458 168.688 104.75 169.938 105.125 171.188C105.5 172.396 106 173.479 106.625 174.438C107.292 175.354 108.104 176.104 109.062 176.688C110.062 177.271 111.25 177.562 112.625 177.562C114.625 177.688 116.271 177.438 117.562 176.812C118.854 176.188 119.896 175.229 120.688 173.938C121.479 172.646 122.083 171.083 122.5 169.25C122.917 167.417 123.25 165.333 123.5 163C123.5 162.083 123.458 160.938 123.375 159.562C123.292 158.188 123.125 156.75 122.875 155.25C122.667 153.75 122.354 152.25 121.938 150.75C121.562 149.208 121.042 147.833 120.375 146.625C119.75 145.375 118.979 144.375 118.062 143.625C117.188 142.875 116.125 142.5 114.875 142.5C113.583 142.5 112.417 142.812 111.375 143.438C110.333 144.021 109.396 144.812 108.562 145.812C107.771 146.771 107.062 147.875 106.438 149.125C105.854 150.375 105.375 151.667 105 153C104.625 154.292 104.333 155.583 104.125 156.875C103.958 158.125 103.875 159.25 103.875 160.25ZM154.562 181.125C154.396 180.375 154.188 179.396 153.938 178.188C153.688 176.938 153.354 175.604 152.938 174.188C152.562 172.729 152.083 171.271 151.5 169.812C150.958 168.354 150.292 167.042 149.5 165.875C148.708 164.667 147.792 163.688 146.75 162.938C145.75 162.188 144.562 161.812 143.188 161.812C142.646 161.812 141.938 161.854 141.062 161.938C140.188 162.021 139.333 162.167 138.5 162.375C137.667 162.542 136.938 162.792 136.312 163.125C135.688 163.458 135.375 163.854 135.375 164.312V180.188C135.208 180.188 134.958 180.146 134.625 180.062C134.292 179.979 133.958 179.875 133.625 179.75C133.292 179.583 133 179.417 132.75 179.25C132.5 179.083 132.375 178.896 132.375 178.688V147.5C131.875 147.583 131.438 147.812 131.062 148.188C130.688 148.521 130.375 148.938 130.125 149.438C129.917 149.938 129.75 150.438 129.625 150.938C129.5 151.438 129.417 151.896 129.375 152.312C129.208 152.312 128.979 152.229 128.688 152.062C128.396 151.854 128.125 151.625 127.875 151.375C127.625 151.125 127.417 150.875 127.25 150.625C127.042 150.333 126.938 150.083 126.938 149.875C126.938 148.833 127.25 147.833 127.875 146.875C128.5 145.875 129.312 144.979 130.312 144.188C131.312 143.354 132.417 142.625 133.625 142C134.875 141.333 136.125 140.771 137.375 140.312C138.625 139.854 139.812 139.5 140.938 139.25C142.062 139 143.021 138.875 143.812 138.875C144.979 138.875 146.083 138.917 147.125 139C148.167 139.083 149.062 139.333 149.812 139.75C150.604 140.125 151.229 140.729 151.688 141.562C152.146 142.396 152.375 143.521 152.375 144.938C152.375 146.229 152.146 147.5 151.688 148.75C151.229 149.958 150.646 151.125 149.938 152.25C149.229 153.375 148.438 154.458 147.562 155.5C146.688 156.5 145.812 157.438 144.938 158.312C146.896 159.521 148.479 160.75 149.688 162C150.896 163.208 151.875 164.438 152.625 165.688C153.375 166.896 153.938 168.125 154.312 169.375C154.729 170.583 155.042 171.833 155.25 173.125C155.5 174.417 155.729 175.729 155.938 177.062C156.188 178.396 156.521 179.75 156.938 181.125H154.562ZM144.062 141.375C143.771 141.375 143.354 141.396 142.812 141.438C142.312 141.438 141.729 141.479 141.062 141.562C140.396 141.646 139.729 141.771 139.062 141.938C138.438 142.104 137.833 142.333 137.25 142.625C136.708 142.917 136.25 143.271 135.875 143.688C135.542 144.062 135.375 144.542 135.375 145.125V161C136.375 161 137.417 160.75 138.5 160.25C139.583 159.75 140.646 159.083 141.688 158.25C142.771 157.375 143.812 156.417 144.812 155.375C145.812 154.292 146.688 153.188 147.438 152.062C148.188 150.938 148.792 149.812 149.25 148.688C149.708 147.562 149.938 146.562 149.938 145.688C149.938 144.729 149.771 143.979 149.438 143.438C149.146 142.854 148.729 142.417 148.188 142.125C147.646 141.792 147.021 141.583 146.312 141.5C145.604 141.417 144.854 141.375 144.062 141.375ZM160.562 147.062L161.562 143.812C161.604 143.771 161.917 143.729 162.5 143.688C163.125 143.604 163.938 143.521 164.938 143.438C165.938 143.312 167.062 143.188 168.312 143.062C169.562 142.938 170.833 142.812 172.125 142.688C173.458 142.562 174.75 142.438 176 142.312C177.292 142.188 178.479 142.062 179.562 141.938C179.562 141.938 179.75 141.938 180.125 141.938C180.5 141.938 180.917 141.938 181.375 141.938C181.833 141.938 182.271 141.938 182.688 141.938C183.104 141.938 183.375 141.938 183.5 141.938C184.5 141.938 185.188 142.125 185.562 142.5C185.938 142.875 186.125 143.688 186.125 144.938L174.75 146.25C174.667 148.875 174.708 151.625 174.875 154.5C175.042 157.375 175.25 160.292 175.5 163.25C175.75 166.167 175.979 169.062 176.188 171.938C176.438 174.812 176.562 177.562 176.562 180.188C176.562 180.562 176.438 180.833 176.188 181C175.979 181.125 175.708 181.208 175.375 181.25C175.083 181.292 174.771 181.271 174.438 181.188C174.104 181.146 173.812 181.083 173.562 181C173.438 180.458 173.312 179.521 173.188 178.188C173.062 176.854 172.938 175.292 172.812 173.5C172.688 171.708 172.562 169.771 172.438 167.688C172.312 165.604 172.188 163.521 172.062 161.438C171.938 159.354 171.812 157.375 171.688 155.5C171.562 153.583 171.458 151.917 171.375 150.5C171.292 149.042 171.208 147.917 171.125 147.125C171.083 146.333 171.042 146.042 171 146.25L160.562 147.062Z" fill="#4578FB"/>
<path d="M151.5 58.3503C151.5 59.3148 150.879 60.5033 149.116 61.8193C147.381 63.115 144.774 64.3454 141.418 65.4052C134.724 67.5191 125.384 68.8503 115 68.8503C104.616 68.8503 95.2758 67.5191 88.5816 65.4052C85.2258 64.3454 82.6191 63.115 80.8836 61.8193C79.121 60.5033 78.5 59.3148 78.5 58.3503C78.5 57.3857 79.121 56.1972 80.8836 54.8813C82.6191 53.5856 85.2258 52.3551 88.5816 51.2954C95.2758 49.1814 104.616 47.8503 115 47.8503C125.384 47.8503 134.724 49.1814 141.418 51.2954C144.774 52.3551 147.381 53.5856 149.116 54.8813C150.879 56.1972 151.5 57.3857 151.5 58.3503Z" stroke="#4578FB" stroke-width="3"/>
<path d="M133.25 24.3864C134.115 24.8856 134.848 26.0394 135.123 28.2295C135.393 30.3896 135.171 33.2702 134.425 36.7127C132.935 43.5803 129.436 52.3427 124.245 61.3337C119.054 70.3247 113.215 77.7369 108.012 82.4603C105.404 84.8281 103.021 86.4609 101.015 87.3064C98.9806 88.1638 97.6146 88.1054 96.75 87.6063C95.8854 87.1071 95.1519 85.9532 94.8774 83.7632C94.6067 81.6031 94.8289 78.7225 95.5754 75.28C97.0646 68.4124 100.564 59.65 105.755 50.659C110.946 41.668 116.785 34.2558 121.988 29.5324C124.596 27.1646 126.979 25.5318 128.985 24.6863C131.019 23.8289 132.385 23.8873 133.25 24.3864Z" stroke="#4578FB" stroke-width="3"/>
<path d="M132.969 89.4786C132.104 89.9777 130.738 90.0361 128.704 89.1787C126.698 88.3332 124.315 86.7004 121.707 84.3326C116.504 79.6092 110.665 72.197 105.474 63.206C100.283 54.215 96.7835 45.4526 95.2943 38.585C94.5478 35.1425 94.3256 32.2619 94.5963 30.1019C94.8707 27.9118 95.6043 26.7579 96.4689 26.2587C97.3334 25.7596 98.6995 25.7012 100.733 26.5586C102.739 27.4042 105.123 29.0369 107.731 31.4047C112.934 36.1281 118.773 43.5403 123.963 52.5313C129.154 61.5223 132.654 70.2847 134.143 77.1523C134.89 80.5948 135.112 83.4754 134.841 85.6355C134.567 87.8256 133.833 88.9794 132.969 89.4786Z" stroke="#4578FB" stroke-width="3"/>
<circle cx="115" cy="57.3503" r="5" fill="#4578FB"/>
</svg>
